{"glyphs":{"\u0000":{"ha":347,"x_min":0,"x_max":0,"o":""},"\r":{"ha":347,"x_min":0,"x_max":0,"o":""}," ":{"ha":347,"x_min":0,"x_max":0,"o":""},"\"":{"ha":371,"x_min":71,"x_max":300,"o":"m 213 1050 q 253 1069 231 1069 q 286 1056 272 1069 q 300 1018 300 1042 q 275 974 300 999 q 254 944 254 953 q 260 928 254 942 q 282 897 267 910 q 290 881 294 888 q 265 875 286 875 q 244 881 244 875 q 238 886 244 886 q 207 907 231 886 q 183 953 183 928 q 190 986 183 979 q 197 1011 197 993 q 213 1050 197 1031 m 97 1051 q 135 1069 114 1069 q 169 1053 156 1069 q 185 1021 185 1035 q 160 975 185 1000 q 138 944 138 954 q 139 933 138 938 q 164 899 146 899 q 172 886 172 899 q 156 874 172 874 q 108 892 136 874 q 100 899 106 894 q 92 904 94 903 q 86 908 90 906 q 81 913 82 911 q 78 917 81 914 q 74 923 75 921 q 72 928 74 925 q 71 935 71 932 q 71 943 71 939 q 78 1013 71 957 q 97 1051 81 1035 z "},"'":{"ha":292,"x_min":71,"x_max":221,"o":"m 81 1056 q 100 1061 90 1061 q 126 1054 113 1061 q 163 1042 158 1042 q 182 1028 174 1039 q 198 1002 190 1018 q 210 981 206 986 q 221 943 221 964 q 201 900 221 919 q 160 881 182 881 q 119 903 138 881 q 100 949 100 926 q 110 972 100 963 q 118 982 118 978 q 94 1014 118 989 q 71 1046 71 1039 q 81 1056 71 1051 z "},",":{"ha":297,"x_min":71,"x_max":226,"o":"m 119 221 q 140 240 132 236 q 164 244 147 244 q 206 228 189 244 q 226 185 226 207 q 204 121 226 161 q 199 104 199 110 q 183 85 199 96 q 154 74 168 74 q 133 65 136 74 q 100 56 129 56 q 76 58 81 56 q 71 69 71 60 q 99 110 71 85 l 126 136 l 114 149 q 101 179 101 161 q 119 221 101 199 z "},".":{"ha":258,"x_min":71,"x_max":188,"o":"m 76 214 q 79 214 76 214 q 92 232 82 214 q 128 250 101 250 q 169 233 154 250 q 188 193 188 215 q 170 152 188 169 q 131 135 153 135 q 90 153 108 135 q 71 193 71 172 q 76 214 71 214 z "},"?":{"ha":549,"x_min":76,"x_max":471,"o":"m 188 268 q 217 272 196 272 q 274 260 264 272 q 318 250 281 250 l 356 250 l 351 231 q 344 206 347 211 q 335 201 342 201 q 318 183 326 201 q 292 161 307 161 q 276 168 283 161 q 247 178 267 178 q 225 183 228 178 q 211 189 221 189 q 182 176 194 189 q 164 165 171 165 q 149 196 149 165 q 160 238 149 215 q 188 268 172 261 m 406 535 q 389 528 397 535 q 371 522 381 522 q 313 468 340 522 q 289 433 299 443 q 294 408 282 425 q 339 388 310 388 q 365 393 354 388 q 383 397 375 397 q 396 386 396 397 q 384 359 396 375 q 361 342 372 343 q 336 333 342 339 q 269 310 308 310 q 249 317 253 310 q 225 322 247 322 q 189 342 204 322 q 174 372 174 361 q 179 397 174 375 q 215 481 196 458 q 231 499 221 489 q 264 539 264 532 q 283 553 264 546 q 326 583 306 563 l 349 604 l 349 751 l 326 768 q 299 783 303 783 q 263 797 293 783 q 226 818 233 811 q 207 822 215 826 q 197 725 197 819 q 179 608 197 608 q 147 596 172 608 q 100 585 125 585 q 76 594 76 585 q 88 608 76 600 q 99 629 97 615 q 103 703 101 643 l 103 786 l 126 813 q 158 838 151 838 q 204 878 167 838 q 254 917 243 917 q 269 929 263 917 q 303 929 281 951 q 332 910 311 918 q 392 863 354 901 q 438 804 431 824 q 446 685 446 774 q 448 603 446 618 q 458 586 450 589 q 471 571 471 583 q 451 560 471 560 q 426 547 433 560 q 406 535 419 535 z "},"A":{"ha":1099,"x_min":79,"x_max":1024,"o":"m 360 790 q 350 796 358 796 q 351 786 340 796 q 357 783 354 783 q 360 786 360 783 q 360 790 361 789 m 335 796 q 336 796 335 796 q 338 799 338 796 q 335 801 338 801 q 332 799 332 801 q 335 796 332 796 m 435 765 q 426 780 435 774 q 417 792 417 786 q 410 804 417 803 q 401 797 404 803 q 396 781 400 792 q 389 760 392 771 q 386 739 386 750 q 377 711 386 725 q 368 683 368 697 q 360 656 368 664 q 350 619 350 649 q 344 589 350 589 q 338 563 338 589 l 338 535 l 460 535 q 581 543 581 535 q 575 550 581 546 q 568 563 568 553 q 553 588 568 568 q 538 615 538 608 q 529 629 538 626 q 508 660 522 633 q 485 694 500 678 q 461 724 469 710 q 443 749 451 743 q 435 765 435 754 m 283 504 q 292 538 283 519 q 301 569 301 556 q 308 593 301 589 q 314 626 314 594 q 326 664 314 656 q 335 679 335 669 q 316 707 335 693 q 282 721 297 721 q 272 718 278 721 q 232 700 249 700 q 225 701 228 700 q 217 719 217 703 q 218 742 217 732 q 228 784 219 778 q 275 790 236 790 q 318 794 311 790 q 322 800 322 797 q 300 820 322 810 q 257 831 278 831 q 244 829 249 831 q 221 807 226 825 q 201 790 213 789 q 188 829 189 792 l 188 847 q 206 881 188 868 q 247 903 225 896 q 304 911 268 911 q 335 906 331 911 q 369 899 339 899 q 395 901 392 899 q 399 915 399 903 q 403 938 399 936 q 438 929 415 951 q 475 896 454 913 q 510 853 499 874 q 526 829 517 839 q 543 803 536 819 q 568 768 553 781 q 593 733 586 753 q 606 711 600 711 q 617 697 611 711 q 653 644 629 669 q 699 579 674 624 q 742 513 724 535 q 772 465 768 482 q 788 442 774 451 q 799 431 799 435 q 818 399 799 425 q 844 369 838 374 q 858 345 850 365 q 872 321 867 325 q 894 294 879 317 q 919 269 910 272 q 939 258 931 267 q 963 250 944 250 q 983 260 979 250 q 997 268 988 268 q 1022 250 1019 268 q 1015 231 1024 239 q 1006 215 1006 222 q 979 196 1006 207 q 942 172 951 185 q 901 158 931 158 q 881 165 885 158 q 865 171 878 171 q 854 176 854 171 q 840 186 854 181 q 799 211 799 197 q 776 254 799 219 q 751 295 764 272 q 727 335 739 318 q 699 374 715 351 q 657 435 664 417 q 642 468 647 461 q 478 479 638 478 l 424 479 q 310 474 318 479 q 301 440 301 465 q 296 411 301 413 q 289 386 289 408 q 281 361 289 364 q 271 325 271 357 l 271 292 l 317 292 q 367 282 364 292 q 360 266 371 275 q 350 250 350 257 q 329 217 350 238 q 293 196 311 196 q 260 211 278 196 q 210 228 240 228 q 157 210 179 228 q 138 186 138 193 q 129 174 138 176 q 121 165 121 169 q 142 135 121 160 q 186 107 161 111 q 218 97 213 101 q 265 92 232 92 q 308 99 308 92 q 328 104 308 104 q 360 117 347 104 q 383 129 369 129 q 425 169 404 129 l 436 190 l 418 196 q 402 206 406 200 q 399 226 399 211 q 401 247 399 244 q 422 250 404 250 q 458 244 447 250 q 479 235 476 236 q 489 215 489 233 q 478 186 489 196 q 465 168 465 176 q 443 142 465 164 q 397 100 421 119 q 344 78 385 90 q 275 64 303 65 q 257 63 268 63 q 214 71 233 63 q 174 81 192 81 q 135 90 156 81 q 107 111 114 100 q 88 138 100 125 q 80 148 81 143 q 81 160 79 153 q 83 174 83 168 q 96 186 83 183 q 106 208 107 199 q 139 249 106 222 q 193 281 178 281 q 222 304 211 281 q 235 350 235 329 q 244 374 235 369 q 253 401 253 375 q 259 428 253 418 q 265 454 265 439 q 275 478 265 475 q 283 504 283 482 z "},"D":{"ha":565,"x_min":79,"x_max":492,"o":"m 336 221 q 311 215 329 228 q 308 196 288 197 q 322 201 314 196 q 335 212 331 206 q 336 221 339 218 m 258 222 q 218 238 244 238 q 181 231 197 238 q 164 217 164 224 q 235 196 164 196 q 274 201 274 196 q 258 222 274 204 m 379 601 q 344 608 363 608 q 314 601 325 608 q 306 574 307 597 q 304 442 304 550 q 308 303 304 333 q 328 272 311 272 q 367 286 336 272 l 394 297 l 394 596 l 379 601 m 347 656 l 328 656 q 304 644 304 656 q 311 634 304 636 q 350 632 318 632 q 393 640 393 632 q 385 652 393 650 q 347 656 376 654 m 350 850 q 335 861 339 861 l 332 861 q 324 860 329 861 q 314 859 319 860 q 301 858 308 858 q 288 858 294 858 q 243 847 243 857 q 233 832 243 842 q 225 558 225 825 l 225 292 l 279 292 l 278 536 q 272 793 275 778 q 274 802 271 800 q 292 804 278 804 q 308 802 306 804 q 310 793 311 800 q 306 735 308 786 l 303 689 l 328 681 q 351 675 350 675 q 374 682 357 675 l 394 693 l 394 757 q 392 814 394 804 q 378 829 390 824 q 350 850 361 836 m 153 936 q 179 946 158 946 l 196 946 q 233 935 233 944 q 218 925 233 928 q 203 919 207 924 q 203 910 199 914 q 218 906 207 906 q 240 911 235 906 q 324 918 247 918 q 413 913 389 918 q 459 884 451 904 q 469 753 467 864 q 474 483 474 646 q 476 364 474 389 q 485 335 478 339 q 490 327 492 331 q 476 313 489 324 q 446 292 467 304 q 389 258 435 286 q 369 229 369 247 l 369 218 q 357 182 371 192 q 249 169 336 169 l 221 169 q 153 186 171 171 q 135 214 135 201 q 154 251 135 228 l 175 278 l 146 275 q 110 282 117 274 q 90 292 103 292 q 79 303 79 292 q 92 316 79 310 q 120 328 104 322 q 139 336 136 333 q 146 575 146 342 q 150 817 146 800 q 179 839 156 826 q 194 854 203 851 q 188 856 193 854 q 176 862 183 858 q 165 867 168 865 q 149 878 151 872 q 146 900 146 883 q 153 936 146 925 z "},"M":{"ha":819,"x_min":76,"x_max":742,"o":"m 357 150 q 332 156 353 178 q 344 136 314 136 q 357 150 358 136 m 271 161 q 243 172 250 172 q 231 164 236 172 q 226 154 226 157 q 264 136 226 136 q 292 144 292 136 q 271 161 292 150 m 540 847 q 525 860 533 860 q 488 836 511 860 q 464 792 464 811 q 467 776 464 779 q 485 771 471 772 q 504 778 507 769 l 499 785 q 492 804 492 789 q 496 817 492 814 q 515 818 500 819 q 533 815 529 817 q 535 804 536 813 q 529 475 529 779 q 533 257 529 261 q 551 263 539 251 l 565 271 l 565 549 q 556 829 565 825 q 540 847 546 832 m 365 843 q 342 878 347 878 q 311 857 336 878 l 283 833 l 285 536 q 292 229 285 236 q 311 222 299 222 q 317 224 315 222 q 319 240 318 226 q 321 276 321 253 q 321 346 321 299 l 321 521 l 318 818 l 339 818 q 355 816 351 818 q 358 804 358 814 q 351 785 358 788 q 350 772 336 776 q 363 771 356 771 q 381 794 381 772 q 365 843 381 817 m 408 918 q 419 903 419 907 q 431 883 419 899 q 443 863 443 868 q 449 856 443 856 q 466 862 454 856 q 488 876 478 868 q 499 883 497 883 q 515 893 500 885 q 538 908 529 901 q 579 928 565 928 q 608 890 596 928 q 628 861 618 865 q 638 843 638 856 q 649 829 638 829 q 701 863 668 829 q 715 886 715 876 q 696 897 715 897 q 681 907 681 897 q 699 917 681 917 q 731 906 717 917 q 742 882 742 897 q 683 789 742 847 l 650 754 l 650 271 l 664 271 q 685 264 676 271 q 693 246 693 257 q 668 211 693 236 q 639 190 647 190 q 629 193 635 190 q 608 211 614 203 q 588 222 600 222 q 568 228 576 222 q 546 236 565 231 q 529 226 529 239 q 542 199 529 214 q 551 185 551 188 q 543 174 551 183 q 524 163 532 163 q 494 179 511 163 l 478 197 l 492 215 q 503 257 501 228 q 508 471 506 286 l 513 708 l 496 713 q 469 708 479 718 q 461 643 461 703 q 464 483 461 636 q 469 299 467 335 q 481 251 472 263 q 490 231 490 238 q 475 213 490 224 q 433 190 439 190 q 399 214 422 190 q 372 249 372 240 q 375 257 372 251 q 381 492 381 267 q 378 684 379 656 q 367 714 376 713 q 363 715 365 714 q 360 715 361 715 q 349 709 353 715 q 342 681 344 703 q 340 617 340 660 q 343 444 340 597 q 357 194 347 194 l 358 194 l 363 194 q 382 153 382 194 q 372 117 382 122 q 297 113 361 113 l 219 113 l 203 131 q 188 164 188 149 q 201 192 188 175 q 224 210 215 210 q 231 215 231 210 q 222 221 231 221 q 192 208 206 221 q 174 200 179 200 q 164 210 164 200 q 182 242 164 225 l 200 258 l 200 353 q 197 438 200 419 q 183 478 194 456 q 125 525 160 525 q 113 521 119 525 q 100 517 104 517 q 90 528 90 517 q 107 558 90 542 q 151 575 124 575 q 182 569 182 575 q 190 563 182 563 q 200 571 200 563 q 192 589 200 578 q 178 600 183 600 q 156 618 174 600 q 126 636 138 636 q 106 626 117 636 q 96 607 96 617 q 94 601 96 603 q 89 600 92 599 q 79 631 82 603 l 79 643 q 83 657 79 653 q 101 665 88 661 q 142 671 117 671 q 189 664 171 671 q 193 663 190 663 q 200 735 200 663 l 200 813 l 222 833 q 235 856 244 856 q 196 881 224 856 q 158 903 174 903 q 138 901 146 903 q 101 890 106 896 q 96 868 96 879 q 103 844 96 851 q 120 838 114 833 q 126 858 126 842 q 129 876 126 872 q 143 878 132 879 q 161 853 160 876 q 157 821 164 829 q 118 813 150 813 q 85 819 92 813 q 76 865 76 828 q 97 928 76 928 q 121 943 103 928 q 165 957 140 957 q 204 956 188 957 q 279 943 267 954 q 310 943 290 932 q 333 951 328 951 q 339 947 339 951 q 335 936 339 946 q 331 919 331 926 q 339 914 331 914 q 351 916 344 914 q 364 919 358 918 q 369 922 369 921 q 381 928 369 928 q 408 918 399 928 z "},"P":{"ha":722,"x_min":78,"x_max":643,"o":"m 518 614 q 472 629 497 629 q 460 625 461 629 q 440 618 456 618 q 419 606 426 618 q 414 535 414 596 q 417 494 414 497 q 436 501 422 492 q 451 510 444 510 q 485 488 458 510 q 513 479 499 476 q 524 488 522 481 q 528 542 526 496 l 528 569 q 518 614 528 604 m 203 639 q 168 660 179 660 q 153 650 157 660 q 156 629 149 640 q 164 608 164 618 q 185 599 164 599 q 202 598 192 599 q 214 597 213 597 l 215 597 q 224 606 224 597 q 203 639 224 622 m 529 668 q 524 688 529 683 q 513 685 519 692 q 460 676 504 676 l 413 676 l 413 656 q 420 637 413 640 q 438 644 428 633 q 488 651 444 651 q 524 653 519 651 q 529 668 529 656 m 489 828 l 444 867 q 426 857 439 867 q 414 810 414 846 l 414 779 l 417 713 l 438 707 q 468 703 456 703 q 507 714 488 703 q 523 728 519 721 q 528 758 526 736 l 529 793 l 489 828 m 175 544 q 144 526 172 544 q 114 508 117 508 q 104 528 104 508 q 121 589 104 558 q 117 604 126 601 q 78 656 78 619 q 96 686 78 676 q 115 706 115 697 q 124 715 115 715 q 139 724 132 715 q 185 733 149 733 l 225 733 l 225 794 q 218 863 225 856 q 175 907 182 906 q 171 908 174 908 q 153 904 165 908 q 101 867 108 889 q 89 863 99 858 q 78 890 78 867 q 88 919 78 908 q 136 949 99 929 q 172 958 154 958 q 250 917 207 958 q 274 908 267 901 q 292 917 282 917 q 306 925 301 917 q 331 935 311 935 q 365 924 351 935 q 374 918 372 917 q 376 933 376 919 q 393 957 376 953 q 418 951 408 961 q 418 919 426 943 q 414 901 414 907 q 418 894 414 894 q 433 903 422 894 q 457 917 450 917 q 476 932 464 917 q 493 947 489 947 q 531 914 500 947 q 621 867 572 871 q 643 853 643 865 q 629 838 643 843 l 614 829 l 614 672 q 624 508 614 515 q 633 490 633 500 q 617 469 633 475 q 592 451 600 463 q 571 442 585 442 q 556 432 558 442 q 544 422 550 422 q 521 404 536 422 l 507 385 l 468 401 q 421 417 431 417 q 413 335 413 417 q 421 243 413 260 q 425 229 425 235 q 399 214 425 215 q 378 228 379 213 q 382 249 375 242 q 389 533 389 256 l 389 811 l 375 821 q 372 839 361 831 q 385 857 385 850 q 363 878 385 869 q 340 885 344 886 q 328 874 336 885 q 317 814 319 863 q 315 574 315 765 q 321 278 315 289 q 335 249 331 258 q 381 203 356 203 q 399 199 394 203 q 426 194 400 194 q 513 204 486 194 q 529 232 529 211 q 532 249 529 246 q 544 253 535 253 q 558 249 556 253 q 558 224 560 244 q 553 202 557 211 q 547 190 550 193 q 534 182 543 188 q 521 174 525 176 q 433 158 513 165 q 374 154 388 154 q 346 165 354 154 q 329 179 335 179 q 301 203 322 179 q 279 235 279 226 q 272 246 279 246 q 247 233 267 246 q 167 197 197 197 q 128 210 128 197 q 157 235 128 219 q 206 285 188 250 q 222 328 219 311 q 225 407 225 346 l 225 492 l 203 518 q 175 544 183 544 z "},"a":{"ha":599,"x_min":76,"x_max":524,"o":"m 364 379 q 357 490 364 479 q 310 501 350 501 l 267 501 q 199 432 222 454 l 199 367 q 211 286 199 301 q 244 271 225 271 q 272 261 265 271 q 289 253 278 253 q 306 242 297 253 q 317 237 311 235 q 339 256 322 239 l 364 279 l 364 379 m 297 563 q 275 575 285 563 q 257 588 265 588 q 237 574 250 588 q 224 553 224 560 q 285 542 224 542 q 301 543 297 542 q 308 554 310 546 q 297 563 307 563 m 167 550 q 144 556 154 550 q 125 563 135 563 q 110 571 111 563 q 92 583 107 581 q 78 591 81 586 q 78 614 76 596 l 81 639 l 129 640 l 151 640 q 186 633 181 640 q 204 624 194 624 q 222 632 214 624 q 229 653 229 640 q 237 665 229 663 q 285 667 244 667 q 339 660 339 667 q 363 628 339 650 q 399 606 388 606 q 426 599 411 606 q 444 590 442 592 q 454 571 454 586 q 446 547 454 556 q 436 408 436 536 l 436 279 l 460 257 q 500 233 481 236 q 516 228 513 232 q 521 208 519 224 q 513 171 524 186 q 497 157 506 160 q 451 154 488 154 q 406 157 414 154 q 390 174 397 160 q 367 192 381 192 q 354 185 358 192 q 311 179 349 179 q 261 185 278 179 q 189 210 211 210 q 146 228 164 210 l 126 246 l 126 358 q 126 420 126 400 q 128 453 126 440 q 131 468 129 465 q 138 471 133 471 q 170 497 150 471 q 190 538 190 522 q 167 550 190 550 z "},"b":{"ha":615,"x_min":79,"x_max":539,"o":"m 297 283 q 328 277 317 283 q 358 271 339 271 q 408 253 382 271 q 438 238 436 236 l 438 249 q 433 401 438 293 q 426 518 429 508 q 389 567 424 528 q 344 606 354 606 q 317 588 335 606 q 294 569 299 569 q 265 553 289 569 l 242 536 l 242 425 q 244 326 242 343 q 256 299 246 310 q 297 283 269 283 m 129 951 q 151 968 142 965 q 190 971 160 971 q 238 961 235 971 q 242 769 242 944 q 246 588 242 588 q 265 601 254 588 q 292 619 281 617 q 340 660 306 622 q 383 697 378 697 q 435 653 392 697 q 482 596 479 608 q 507 563 488 579 q 528 528 528 542 q 521 517 528 521 q 515 390 515 513 q 517 285 515 307 q 528 253 519 264 q 539 224 539 239 q 534 212 539 214 q 504 210 529 210 q 460 199 468 210 q 432 181 454 193 q 411 167 411 172 q 396 161 411 161 q 371 169 375 161 q 360 179 367 179 q 324 194 351 179 q 271 210 297 210 q 243 218 244 210 q 217 218 233 238 q 192 210 211 210 q 171 203 174 210 q 140 197 168 197 q 110 210 110 197 q 133 243 110 221 l 163 269 l 163 576 q 160 835 163 782 q 151 893 158 888 q 132 888 142 901 q 101 874 124 874 q 81 883 85 874 q 79 889 79 885 q 129 951 79 899 z "},"c":{"ha":436,"x_min":76,"x_max":360,"o":"m 236 646 l 253 660 l 297 618 q 347 575 343 575 q 358 566 356 575 q 354 549 360 557 q 296 511 346 538 l 276 500 l 251 524 q 222 561 226 549 q 206 575 218 575 q 183 560 194 575 q 174 426 174 544 q 179 294 174 304 q 216 269 183 285 q 261 253 249 253 q 292 274 268 253 q 331 294 313 294 q 346 282 346 294 q 301 226 346 271 q 253 172 253 175 q 233 169 253 161 q 222 179 225 174 q 200 193 214 190 q 185 203 185 199 q 179 210 185 210 q 138 226 171 210 q 100 249 106 242 q 99 279 92 260 q 106 403 106 294 l 106 508 l 90 515 q 76 532 76 521 q 96 554 76 543 q 154 594 147 582 q 174 606 163 606 q 185 611 185 606 q 203 625 185 617 q 236 646 214 629 z "},"d":{"ha":596,"x_min":75,"x_max":518,"o":"m 246 589 q 231 575 246 586 q 215 561 215 564 q 194 536 215 557 l 172 515 l 174 440 q 176 364 174 411 q 180 283 178 317 q 183 250 182 250 l 183 251 q 199 258 183 258 q 218 264 215 258 q 246 271 221 271 q 274 279 272 271 q 299 289 278 289 q 340 301 321 289 l 361 314 l 361 521 l 336 544 q 303 569 311 569 q 285 581 293 569 q 254 594 274 594 q 246 589 246 594 m 221 685 q 265 648 224 685 q 311 611 307 611 q 332 596 319 611 q 350 581 344 581 q 360 613 358 581 q 361 760 361 646 q 365 943 361 942 q 407 947 367 947 q 442 942 433 947 q 482 910 451 938 q 518 865 518 876 q 490 856 518 856 q 460 865 465 856 q 451 875 456 875 q 440 567 440 875 l 440 267 l 463 246 q 483 214 483 225 q 458 203 483 203 q 419 213 433 203 q 360 222 403 222 q 300 213 317 222 q 254 186 269 193 q 236 174 244 182 q 225 167 233 167 q 204 176 218 167 q 186 185 190 185 q 156 203 176 185 q 106 222 135 222 q 75 233 75 222 q 88 256 75 243 q 100 314 100 267 q 99 383 100 353 q 88 515 97 497 q 82 529 82 526 q 104 558 82 536 q 129 593 129 586 q 172 642 129 600 q 221 685 214 685 z "},"e":{"ha":524,"x_min":75,"x_max":447,"o":"m 232 544 l 200 575 q 179 553 190 575 q 172 453 172 539 q 178 375 172 382 q 201 378 185 367 q 303 432 251 411 q 325 451 325 443 q 303 488 325 461 q 272 514 281 514 q 232 544 263 514 m 236 642 q 254 654 249 654 q 300 615 264 654 q 349 575 338 575 q 372 557 360 575 q 417 519 383 542 q 446 490 446 500 q 417 467 446 479 q 378 440 393 458 q 311 399 368 428 q 258 361 258 374 q 264 353 258 357 q 269 338 271 349 q 260 318 268 328 q 232 307 249 307 q 200 317 217 307 q 181 317 185 328 l 181 314 l 179 311 q 235 269 179 292 q 251 258 251 263 q 288 236 251 254 q 324 221 318 221 q 343 228 329 221 q 369 244 367 239 q 395 262 375 253 q 429 271 415 271 q 447 254 447 271 q 426 231 447 240 q 364 190 414 224 q 331 156 339 175 q 307 136 322 136 q 289 146 299 136 q 274 154 283 154 q 258 164 265 154 q 239 174 251 174 q 193 190 226 174 q 101 228 118 228 q 78 240 78 228 q 90 264 78 250 l 106 281 l 106 508 l 90 514 q 75 526 75 519 q 86 546 75 535 q 107 557 97 557 q 118 563 118 557 q 124 571 118 567 q 139 579 131 575 q 150 586 147 583 q 206 619 164 599 q 236 642 229 633 z "},"f":{"ha":585,"x_min":79,"x_max":506,"o":"m 179 868 q 198 883 185 868 q 218 897 211 897 q 249 918 228 897 q 283 944 269 936 q 303 951 297 951 q 333 932 315 951 q 368 908 354 911 q 396 886 382 906 q 419 868 408 868 q 442 853 432 868 l 451 836 l 468 853 q 494 868 483 868 q 505 856 504 868 q 496 838 506 844 q 486 824 486 831 q 469 799 486 817 q 447 782 453 782 q 419 760 442 782 q 393 742 401 742 q 376 746 386 742 q 340 768 358 753 q 318 782 324 782 q 297 796 311 782 q 217 842 246 842 l 215 842 q 213 840 214 840 q 207 782 207 838 l 207 728 l 335 728 l 335 697 q 329 667 335 667 q 318 653 324 667 q 306 629 315 639 q 299 606 299 619 q 307 585 299 586 q 315 604 313 585 q 332 628 317 624 q 340 629 335 629 q 365 593 365 629 q 359 557 365 564 q 325 550 353 550 q 282 565 292 550 q 275 599 275 574 q 281 651 275 622 q 281 653 281 653 l 282 656 q 244 665 282 664 l 207 667 l 207 271 l 233 271 q 264 260 264 271 q 238 224 264 249 q 204 182 206 192 q 192 168 200 168 q 169 183 185 168 q 150 197 154 197 q 126 215 143 197 q 110 242 110 233 q 121 258 110 251 q 130 276 128 263 q 132 351 132 290 l 132 464 l 131 664 l 106 667 q 85 672 88 668 q 81 696 82 676 q 80 714 79 708 q 83 720 81 719 q 96 721 86 721 q 126 728 119 721 q 133 758 133 735 q 121 794 133 788 q 110 811 110 801 q 136 847 110 825 q 179 868 163 868 z "},"g":{"ha":601,"x_min":81,"x_max":522,"o":"m 322 544 q 281 581 286 581 q 257 560 275 581 l 236 539 l 236 426 q 238 331 236 350 q 247 310 240 313 q 266 301 251 308 q 290 294 281 294 q 307 288 304 294 q 326 276 314 281 q 340 272 335 272 q 355 297 351 272 q 358 396 358 321 l 358 506 l 322 544 m 456 224 q 477 197 456 221 q 499 169 499 174 q 511 151 499 161 q 522 106 522 142 q 519 72 522 81 q 496 43 515 63 q 468 7 468 15 q 460 -8 468 -1 q 443 -15 453 -15 q 422 -32 433 -15 q 396 -54 414 -46 q 322 -106 368 -67 q 293 -125 300 -125 q 272 -108 288 -125 q 253 -82 257 -92 q 226 -57 247 -67 q 182 -47 206 -47 q 149 -58 158 -47 q 131 -71 139 -71 q 111 -85 128 -71 q 88 -99 94 -99 q 83 -97 85 -99 q 81 -89 81 -94 q 124 -21 81 -67 q 206 26 171 26 q 217 25 213 26 q 238 22 222 24 q 264 17 254 19 q 284 11 274 15 q 300 0 294 7 q 333 -19 317 -19 q 371 0 349 -19 q 408 48 392 18 q 424 97 424 78 q 422 101 424 99 l 422 104 q 374 167 419 121 l 329 213 l 314 199 q 294 186 301 186 q 267 207 288 186 q 239 228 246 228 q 216 235 232 228 q 183 253 200 243 q 163 265 167 264 q 146 283 146 271 q 160 303 146 293 q 173 323 171 310 q 175 407 175 336 q 169 500 175 483 q 138 522 164 517 q 119 536 119 526 q 140 556 119 546 q 172 563 158 563 q 185 572 182 563 q 206 581 189 581 q 244 606 219 581 q 283 632 265 629 q 304 649 297 636 q 321 661 311 661 q 379 619 339 661 q 419 572 419 579 q 437 549 419 567 q 454 524 454 532 q 440 508 454 514 l 425 501 l 425 383 q 427 278 425 294 q 440 247 429 261 q 456 224 456 229 z "},"h":{"ha":654,"x_min":78,"x_max":576,"o":"m 186 185 q 163 200 179 185 q 142 215 147 215 q 119 231 132 215 q 92 247 106 244 q 78 268 78 249 q 86 294 78 282 q 106 307 94 307 q 133 322 115 307 q 168 338 149 338 q 189 351 185 338 q 190 615 190 358 l 189 864 l 150 868 q 124 871 132 869 q 113 875 117 872 q 108 885 108 878 q 118 909 108 896 q 136 922 128 922 q 164 940 146 922 q 206 957 179 957 l 229 957 l 274 956 l 278 754 l 281 554 l 297 551 q 328 565 313 550 q 368 590 340 578 q 401 610 394 600 q 413 617 406 617 q 473 576 429 617 q 525 535 517 536 q 547 518 536 532 q 557 493 557 504 q 539 476 557 485 l 521 471 l 522 367 q 526 278 524 294 q 536 258 528 261 q 565 240 553 254 q 576 214 576 226 q 565 200 576 204 q 547 192 561 199 q 524 185 532 185 q 508 174 515 185 q 490 161 503 161 q 443 210 461 161 q 436 340 436 226 l 436 450 l 407 479 q 357 508 379 508 q 322 493 342 508 q 293 476 301 478 q 282 461 283 475 q 281 368 281 447 l 281 324 q 283 270 281 279 q 293 260 285 261 q 310 239 310 258 q 301 213 310 225 q 278 199 292 200 q 251 179 264 196 q 224 161 238 161 q 204 174 211 161 q 186 185 197 185 z "},"i":{"ha":426,"x_min":75,"x_max":349,"o":"m 131 660 q 151 672 138 660 q 172 685 165 685 q 188 694 183 685 q 206 703 192 704 q 221 693 221 703 q 258 647 221 682 q 292 601 292 615 q 278 593 292 593 q 253 583 265 593 q 241 556 243 576 q 239 429 239 536 l 239 285 l 260 267 q 313 244 279 246 q 349 232 349 242 q 332 219 349 225 q 313 208 313 211 q 282 192 313 206 q 251 174 251 178 q 231 167 251 167 q 208 174 208 167 q 186 190 208 178 q 163 204 164 201 q 134 224 156 214 q 99 233 113 233 q 84 236 88 233 q 81 249 81 239 q 89 264 81 264 q 119 275 94 264 l 142 285 l 142 556 l 122 575 q 92 593 104 593 q 81 603 81 593 q 101 639 81 615 q 131 660 122 660 m 92 823 q 84 828 92 823 q 75 839 75 833 q 129 899 75 844 q 189 953 183 953 q 242 909 196 953 q 289 858 289 865 q 242 808 289 851 q 189 764 196 764 q 175 774 178 764 q 160 782 171 782 q 138 797 153 782 q 118 813 122 813 q 92 823 110 813 z "},"j":{"ha":501,"x_min":81,"x_max":421,"o":"m 270 470 q 273 470 270 470 q 275 467 275 469 q 303 435 275 464 q 331 403 331 406 q 311 393 331 401 l 293 388 l 293 283 q 295 193 293 208 q 307 172 297 178 q 336 158 315 165 q 369 135 349 154 q 390 110 390 117 q 399 94 390 103 q 421 8 421 72 q 417 -24 421 -12 q 402 -46 413 -35 q 386 -67 392 -57 q 369 -86 381 -78 q 340 -103 357 -94 q 314 -117 322 -111 q 283 -132 292 -132 q 251 -108 278 -132 q 181 -61 203 -61 q 176 -62 179 -61 q 171 -62 174 -62 q 138 -76 147 -68 q 92 -100 106 -100 l 90 -100 q 88 -99 89 -99 q 82 -82 81 -93 q 93 -61 83 -71 q 104 -43 104 -53 q 165 14 104 -32 q 215 28 183 28 q 251 15 243 28 q 265 3 258 3 q 292 -12 272 3 q 314 -36 313 -28 q 328 -42 318 -51 q 335 -25 333 -35 q 335 -18 335 -22 q 336 -11 336 -14 q 294 56 336 14 q 207 113 239 113 q 183 121 189 113 q 199 150 178 131 l 221 171 l 221 268 q 219 351 221 335 q 207 378 217 367 q 186 392 196 392 q 175 404 175 392 q 188 427 175 413 q 210 442 200 442 q 222 450 218 442 q 240 465 225 458 q 257 469 249 468 q 270 470 265 471 m 208 621 q 253 660 247 660 q 292 628 260 660 q 324 590 324 596 q 292 551 324 581 l 258 519 l 238 532 q 197 554 221 542 q 174 575 174 565 q 208 621 174 586 z "},"k":{"ha":638,"x_min":81,"x_max":563,"o":"m 368 565 q 356 589 368 571 q 339 607 343 607 q 301 592 317 607 q 283 583 293 583 q 272 578 272 583 q 257 571 272 571 q 240 564 240 571 l 240 544 q 247 424 240 431 q 251 422 249 422 q 274 430 258 422 q 290 438 289 438 q 310 453 294 438 q 332 468 325 468 q 353 481 339 468 q 375 493 368 493 q 399 517 399 493 q 383 546 399 533 q 368 565 368 558 m 301 389 q 281 380 293 389 q 258 371 269 371 l 242 371 l 242 317 q 256 261 242 263 q 271 243 269 260 q 268 228 272 233 q 246 215 264 224 q 208 190 217 200 q 189 178 196 178 q 132 211 168 178 q 107 225 118 225 q 90 235 100 225 q 89 240 89 236 q 119 278 89 247 l 157 313 l 157 603 q 151 896 157 893 q 138 890 146 899 q 107 881 128 881 q 81 894 81 881 q 89 917 81 906 q 107 929 97 929 q 138 947 117 929 q 189 965 157 965 q 228 961 222 965 q 236 796 235 957 q 239 628 236 636 q 249 621 240 624 q 265 620 257 618 q 272 626 272 622 q 282 632 272 632 q 311 650 289 632 q 339 668 333 668 q 355 677 347 668 q 372 686 363 686 q 388 693 388 686 q 411 699 388 699 q 432 695 426 699 q 444 676 438 692 q 479 632 454 654 q 503 600 503 608 q 525 579 503 589 q 550 551 550 567 q 536 538 550 542 q 500 511 529 536 q 460 486 471 486 q 447 471 447 486 q 465 424 447 450 q 481 393 478 406 q 483 344 483 381 q 493 290 483 294 q 503 274 503 288 q 507 263 503 263 q 526 278 513 264 q 549 290 542 290 q 563 261 563 290 q 532 214 563 214 q 514 201 521 214 q 488 179 504 186 q 463 165 467 171 q 436 158 458 158 q 390 179 415 158 q 368 210 368 199 q 360 225 368 217 q 350 283 350 233 q 342 340 350 333 q 332 358 332 350 q 322 378 332 368 q 301 389 311 389 z "},"l":{"ha":361,"x_min":79,"x_max":285,"o":"m 150 950 q 165 963 157 961 q 201 965 174 965 q 250 953 244 965 q 254 878 254 942 q 253 781 254 821 q 252 704 253 761 q 251 614 251 647 q 252 520 251 581 q 253 436 253 460 l 257 250 l 271 246 q 285 233 285 240 q 272 210 285 224 q 249 196 258 196 q 224 178 239 196 q 194 160 210 160 q 189 165 189 160 q 168 179 189 171 q 140 201 150 186 q 118 214 133 214 q 100 224 100 214 q 131 265 100 236 l 164 299 l 164 596 q 161 893 164 893 q 149 883 158 893 q 121 875 140 875 q 92 881 106 875 q 79 894 79 886 q 94 915 79 901 q 124 932 110 929 q 150 950 140 935 z "},"m":{"ha":763,"x_min":78,"x_max":688,"o":"m 294 538 q 271 546 278 546 q 259 526 261 546 q 257 436 257 507 l 257 408 q 263 273 257 296 q 297 250 268 250 l 313 250 q 365 266 357 251 q 372 369 372 281 l 372 386 q 371 488 372 469 q 363 506 369 506 q 333 517 353 506 q 294 538 326 521 m 142 238 q 160 250 142 242 q 179 264 179 258 q 180 283 179 268 q 181 307 181 297 q 172 522 181 506 q 144 543 167 533 q 124 560 124 553 q 103 565 124 565 q 78 574 78 565 q 90 594 78 581 q 110 608 103 608 q 138 632 118 608 q 178 657 158 657 q 193 647 189 657 q 207 638 196 638 q 234 623 213 638 q 261 608 256 608 q 269 601 269 608 q 300 617 269 582 q 336 636 318 636 q 368 622 353 636 q 394 608 385 608 q 408 596 399 608 q 431 578 413 586 q 453 567 449 571 q 465 562 460 561 q 481 574 469 563 q 507 589 496 589 q 539 614 514 589 q 575 638 560 638 q 624 601 588 638 q 672 565 660 565 q 686 556 686 565 q 667 524 686 543 l 646 501 l 646 386 q 656 261 646 271 q 676 250 667 250 q 688 240 688 250 q 666 211 688 233 q 638 189 644 189 q 614 172 631 189 l 597 157 l 581 172 q 557 189 564 189 q 528 211 550 189 q 506 240 506 233 q 524 250 506 250 q 554 261 540 250 q 560 267 558 265 q 564 278 563 269 q 566 299 565 286 q 567 336 567 313 l 567 393 l 567 514 l 550 531 q 522 546 536 546 q 494 528 507 546 q 465 504 482 510 l 451 499 q 453 382 453 460 q 454 265 453 304 l 475 254 q 499 239 499 240 q 474 211 499 233 q 443 189 450 189 q 419 172 436 189 l 403 157 l 386 172 q 363 189 369 189 q 339 207 357 189 q 314 225 322 225 q 300 217 306 225 q 282 207 290 207 q 256 183 272 207 q 235 158 240 158 q 214 174 231 158 q 194 189 197 189 q 165 210 188 189 q 142 238 142 231 z "},"n":{"ha":585,"x_min":78,"x_max":508,"o":"m 335 538 q 289 553 315 553 q 272 543 276 553 q 268 408 268 526 q 276 278 268 297 q 328 260 283 260 l 335 260 q 383 275 375 260 q 390 374 390 290 l 390 389 q 381 511 390 503 q 335 538 364 526 m 442 589 q 471 571 447 589 q 499 553 494 553 q 508 546 508 553 q 497 524 508 536 q 478 511 485 511 q 469 507 472 511 q 465 489 467 503 q 463 451 464 475 q 463 386 463 428 q 465 295 463 314 q 475 268 467 276 q 496 256 488 256 q 506 247 506 256 q 485 217 506 238 q 456 196 464 196 q 436 181 449 196 q 417 167 424 167 q 400 181 410 167 q 378 196 390 196 q 360 207 367 196 q 331 229 349 229 q 318 224 326 229 q 297 214 308 214 q 282 206 288 214 q 258 181 275 194 l 238 164 l 222 179 q 200 196 206 196 q 173 216 193 196 q 153 244 153 236 q 174 263 153 254 l 193 271 q 194 394 194 313 q 196 518 194 476 l 179 536 q 153 553 163 553 q 135 563 144 553 q 108 571 126 571 q 78 585 78 571 q 90 603 78 592 q 132 639 122 631 q 176 663 157 663 q 196 656 196 663 q 211 650 196 650 q 235 636 225 650 q 272 618 244 622 q 290 617 281 617 q 321 632 304 617 q 351 649 339 649 q 378 635 364 649 q 399 619 393 619 q 421 604 404 619 q 442 589 438 589 z "},"o":{"ha":514,"x_min":75,"x_max":439,"o":"m 294 542 q 269 559 288 542 q 246 576 251 576 q 207 544 236 576 l 178 513 l 178 311 l 194 307 q 246 267 210 303 q 288 235 278 235 l 289 235 q 306 244 294 236 q 325 253 318 251 q 334 276 332 256 q 336 383 336 297 q 334 494 336 475 q 321 525 332 513 q 294 542 307 542 m 126 238 q 107 250 118 238 q 88 263 96 263 q 75 283 75 263 q 85 308 75 306 q 94 404 94 313 q 85 504 94 496 q 76 525 76 513 q 87 556 76 542 q 110 571 97 571 q 160 611 122 571 q 210 650 196 650 q 224 660 221 650 q 265 668 226 668 q 300 665 292 668 q 321 647 308 663 q 349 626 339 626 q 365 617 354 626 q 383 608 376 608 q 417 586 392 608 q 439 546 439 567 q 429 517 439 526 q 419 406 419 508 q 429 289 419 300 q 439 261 439 274 q 424 232 439 244 q 396 219 406 219 q 382 210 389 219 q 367 201 375 201 q 338 181 356 201 l 321 158 l 218 158 l 178 199 q 126 238 139 238 z "},"p":{"ha":629,"x_min":75,"x_max":551,"o":"m 396 550 q 365 564 376 564 q 338 554 356 564 l 318 544 l 318 360 l 353 335 q 404 311 386 311 l 408 311 l 431 314 l 432 425 l 432 464 q 425 535 432 535 q 396 550 419 535 m 381 656 q 415 668 393 668 q 439 660 431 668 q 456 650 449 650 q 476 635 464 650 q 506 619 488 619 q 539 603 525 619 q 551 587 550 592 q 544 575 551 582 q 526 565 535 565 q 518 432 518 565 l 518 299 l 474 278 q 397 225 435 260 q 363 196 365 196 q 335 218 342 196 q 326 231 331 231 q 319 157 319 231 l 319 125 l 321 29 l 340 26 q 365 6 365 24 q 358 -14 365 -3 q 322 -29 349 -29 q 297 -34 306 -29 q 267 -60 288 -39 q 226 -90 236 -90 q 203 -108 215 -90 q 189 -122 194 -119 q 167 -125 183 -125 l 143 -125 l 96 -124 l 96 -44 l 121 -43 l 132 -43 q 167 -47 153 -43 q 203 -44 190 -56 q 214 -26 214 -36 q 224 -11 214 -21 q 233 135 233 -4 l 233 274 l 193 274 q 156 271 165 274 q 133 253 147 268 q 99 233 115 233 l 94 233 q 75 254 75 236 q 92 288 75 271 q 153 326 111 306 q 213 347 194 347 l 233 347 l 233 542 l 214 563 q 176 583 193 583 q 163 586 167 583 q 160 600 160 589 q 165 616 160 611 q 185 626 169 621 q 215 642 207 633 q 251 650 224 650 q 288 642 279 650 q 306 632 297 632 q 328 617 318 632 q 342 603 338 603 q 358 622 347 603 q 381 656 371 643 z "},"q":{"ha":490,"x_min":72,"x_max":413,"o":"m 267 549 q 225 578 232 578 q 205 554 208 578 q 201 421 201 531 l 201 281 l 217 281 q 258 256 231 281 q 289 233 283 231 q 297 378 294 235 l 299 518 l 267 549 m 116 569 q 121 573 116 569 q 132 578 126 578 q 150 590 138 578 q 167 601 163 601 q 197 624 175 601 q 233 654 219 646 q 260 663 247 663 q 321 618 278 663 q 376 561 365 571 q 399 547 386 551 q 413 535 413 542 q 392 506 413 525 l 371 486 l 371 7 l 389 7 q 413 -4 413 7 q 406 -19 413 -10 q 372 -35 394 -35 q 322 -62 349 -35 q 286 -90 297 -90 q 263 -106 278 -90 q 226 -119 249 -119 l 210 -119 l 174 -117 l 174 -50 l 200 -49 q 229 -58 226 -47 q 238 -70 232 -68 q 247 -65 243 -72 q 263 -60 249 -60 q 286 -32 274 -60 q 299 76 299 -1 q 294 168 299 151 q 282 165 290 176 q 253 153 274 153 q 207 192 225 153 q 189 207 200 207 q 174 213 179 207 q 143 207 168 218 q 100 196 121 196 q 75 206 78 196 q 94 235 72 215 l 117 256 l 117 503 l 99 513 q 76 528 79 521 q 82 548 74 536 q 99 560 90 560 q 116 569 106 560 z "},"r":{"ha":521,"x_min":75,"x_max":443,"o":"m 128 651 q 167 668 142 668 q 208 650 193 668 q 232 633 224 633 q 242 642 239 633 q 290 650 244 650 q 339 642 336 650 q 351 632 346 632 q 367 627 357 632 q 385 622 378 622 q 396 625 392 622 q 421 632 407 632 q 440 622 436 632 q 443 608 443 611 q 413 565 443 594 q 381 540 390 544 q 350 535 371 535 q 308 544 321 535 q 272 553 296 553 q 239 544 247 553 q 233 449 233 536 l 233 404 l 235 271 l 257 269 q 285 247 285 268 q 275 221 285 235 q 256 207 265 207 q 228 186 246 207 q 196 165 211 165 q 164 186 181 165 q 131 207 147 207 q 99 219 113 207 q 86 249 86 232 q 90 265 86 261 q 113 269 94 268 l 138 271 l 140 403 l 140 476 q 128 553 140 539 q 94 571 114 571 q 75 581 75 571 q 82 606 75 585 q 103 629 89 626 q 128 651 114 632 z "},"s":{"ha":526,"x_min":76,"x_max":451,"o":"m 313 542 q 271 576 278 576 q 242 567 247 574 q 235 536 236 560 l 235 524 q 249 483 235 503 q 289 457 269 457 q 321 465 303 457 q 349 490 349 478 q 313 542 349 506 m 351 657 q 367 660 357 664 q 378 647 376 657 q 415 601 381 636 q 451 557 451 565 q 393 511 451 538 q 379 500 379 504 q 397 478 379 494 q 431 456 415 463 q 451 428 451 447 q 438 413 451 414 q 426 402 428 411 q 422 343 424 393 l 422 307 q 436 264 422 275 q 450 239 450 251 q 436 225 450 225 q 356 181 396 225 q 317 153 331 153 q 303 171 307 153 q 293 192 300 189 q 259 206 278 196 q 231 221 240 217 q 215 231 222 225 q 199 241 207 238 q 174 244 190 244 q 125 225 144 244 q 103 193 111 208 q 85 186 97 176 q 76 204 78 193 q 113 258 76 222 q 164 299 150 299 q 188 307 176 299 q 225 315 196 315 q 265 307 253 315 q 297 299 279 299 q 328 289 311 299 q 346 293 343 278 q 347 335 347 299 l 347 358 q 343 403 346 396 q 328 414 340 411 q 318 415 325 415 q 286 394 308 415 q 250 371 260 371 q 217 383 238 371 q 185 410 196 396 q 160 426 172 426 q 143 436 150 426 q 136 458 136 446 q 151 485 136 467 q 164 518 167 503 q 161 536 161 532 q 149 542 161 542 q 136 557 136 542 q 146 578 136 569 q 278 631 194 619 q 307 642 301 633 q 331 650 313 650 q 351 657 349 650 z "},"t":{"ha":375,"x_min":79,"x_max":296,"o":"m 135 939 q 142 971 135 964 q 176 978 149 978 q 218 969 211 978 q 226 843 226 958 l 228 726 l 260 724 q 294 710 290 722 q 296 701 296 707 q 256 682 296 686 l 225 679 q 226 466 225 608 q 228 253 228 324 l 251 250 q 275 238 275 247 q 242 190 275 225 q 194 154 207 154 q 185 163 189 154 q 154 185 181 174 q 106 196 128 196 q 79 206 79 196 q 128 247 79 218 q 151 269 147 260 q 158 475 158 290 l 158 681 l 126 682 q 108 683 113 682 q 99 685 103 683 q 94 691 94 688 q 93 703 93 694 l 90 722 l 122 724 q 156 735 156 725 q 136 747 156 744 q 118 763 118 751 q 133 778 118 774 q 169 810 149 781 q 189 860 189 840 q 184 890 189 882 q 165 899 179 899 q 142 906 149 899 q 135 939 135 913 z "},"u":{"ha":594,"x_min":74,"x_max":518,"o":"m 232 292 q 247 283 239 292 q 260 274 254 274 q 275 268 274 274 q 300 263 278 263 l 321 263 l 321 401 q 319 522 321 499 q 308 553 317 544 q 258 565 296 565 q 208 547 215 565 q 200 424 200 528 q 211 303 200 313 q 232 292 222 292 m 186 201 q 162 217 183 201 q 136 232 140 232 q 125 239 128 232 q 100 258 122 249 q 78 276 78 268 q 89 294 78 283 q 111 306 100 304 q 122 324 119 307 q 125 422 124 342 q 126 467 125 442 q 126 497 126 492 q 114 551 126 539 q 93 565 100 565 q 78 575 88 565 q 76 586 74 583 q 93 604 78 589 q 124 626 118 626 q 143 642 133 626 q 167 656 153 656 q 193 642 181 656 q 215 626 208 626 q 240 611 222 626 l 258 596 l 289 613 q 328 642 321 629 q 350 656 336 656 q 374 642 365 656 q 393 626 383 626 q 422 607 403 626 q 440 576 440 588 q 426 565 440 565 q 404 542 408 565 q 400 422 400 518 q 401 314 400 333 q 413 283 403 294 q 488 250 435 256 q 518 238 518 247 q 486 203 518 228 q 444 165 450 175 q 417 153 436 153 q 397 163 401 153 q 383 171 394 171 q 357 186 372 171 q 324 201 342 201 q 301 207 304 201 q 274 192 299 214 q 233 172 253 172 q 206 186 218 172 q 186 201 190 201 z "},"v":{"ha":696,"x_min":78,"x_max":618,"o":"m 218 583 q 195 592 207 583 q 175 601 183 601 q 139 616 164 601 q 97 646 114 631 q 81 669 83 660 q 78 714 78 678 q 89 772 78 764 q 107 797 100 781 q 132 826 114 814 q 150 849 150 842 q 165 875 150 858 q 194 900 179 892 q 244 910 214 910 q 285 896 274 910 q 308 881 297 881 q 321 860 321 881 q 308 833 321 833 q 299 840 303 833 q 282 850 292 850 q 269 857 272 850 q 257 864 265 864 q 225 847 243 864 q 199 808 207 831 q 183 776 190 785 q 190 743 168 758 q 206 724 206 733 q 216 703 206 714 q 236 693 226 693 q 250 685 247 693 q 325 665 253 675 q 347 665 342 664 q 360 678 353 667 q 381 693 371 693 q 399 663 399 693 q 390 623 399 644 q 375 601 382 601 q 369 590 369 601 q 363 575 369 578 q 357 449 357 571 l 357 328 l 394 289 q 439 250 433 250 q 465 260 449 250 l 485 268 l 485 404 q 481 533 485 514 q 451 554 476 551 q 433 567 433 556 q 471 622 433 583 q 515 663 508 663 q 539 642 521 663 q 569 619 558 619 q 585 613 582 619 q 603 601 592 606 q 618 592 618 596 q 605 572 618 585 q 578 553 592 560 l 560 544 q 558 428 558 506 q 557 311 558 350 l 572 301 q 586 279 586 293 q 572 264 586 265 q 534 253 553 261 q 513 240 515 246 q 499 232 510 232 q 453 196 489 232 q 413 158 415 158 q 378 189 408 158 q 342 219 347 219 q 308 244 333 219 q 265 275 283 269 q 249 290 249 281 q 263 311 249 299 l 278 324 l 278 571 l 260 571 q 239 577 247 571 q 218 583 231 583 z "},"w":{"ha":951,"x_min":79,"x_max":874,"o":"m 110 796 q 131 824 110 803 q 151 851 151 846 q 167 876 151 860 q 196 900 182 893 q 247 910 215 910 q 285 900 279 910 q 304 886 289 889 q 321 857 321 885 q 308 835 321 835 q 296 843 303 835 q 250 868 278 868 q 223 851 239 868 q 200 814 207 833 q 185 783 193 793 q 178 767 178 774 q 192 746 178 758 q 207 724 207 733 q 215 706 207 714 q 232 699 222 699 q 249 690 240 699 q 274 681 258 681 q 294 675 293 681 q 347 668 297 668 q 388 667 381 668 q 394 656 394 665 q 383 628 394 642 q 358 569 363 599 q 353 453 353 540 l 353 343 l 392 301 q 443 263 431 263 q 453 268 449 263 q 468 274 454 274 q 481 282 481 274 l 481 322 q 472 557 481 549 q 458 563 469 560 q 436 569 446 565 q 426 578 426 574 q 464 627 426 586 q 510 668 501 668 q 538 647 514 668 q 586 617 560 626 q 613 599 613 606 q 602 577 613 589 q 583 565 592 565 q 562 545 565 565 q 558 436 558 525 l 558 321 l 588 292 q 639 263 615 263 q 680 283 674 263 q 686 415 686 303 q 686 490 686 465 q 684 528 686 514 q 680 545 682 543 q 674 547 678 547 q 643 565 643 547 q 669 601 643 575 q 706 626 696 626 q 726 642 717 626 q 753 656 736 656 q 768 647 764 656 q 807 635 774 635 q 821 636 818 635 q 839 660 831 639 q 860 681 846 681 q 872 676 869 681 q 874 656 874 672 q 850 607 874 629 q 817 583 826 583 q 801 574 811 583 q 783 565 790 565 q 763 542 767 565 q 758 431 758 519 q 760 332 758 347 q 769 317 761 317 q 784 310 783 317 q 774 293 785 303 q 734 267 764 283 q 697 250 704 250 q 673 232 690 250 q 653 204 656 214 q 635 176 650 193 q 614 158 619 158 q 599 174 606 158 q 531 218 579 197 q 500 239 515 228 q 490 244 492 244 q 443 204 483 244 q 393 158 397 158 q 385 169 388 158 q 364 201 379 183 q 342 219 349 219 q 313 240 333 219 q 275 263 292 263 q 254 275 254 263 q 265 294 254 285 l 279 308 q 278 445 278 354 q 276 581 278 536 l 258 582 q 237 590 249 583 q 215 596 225 596 q 193 605 206 596 q 169 614 181 614 q 149 619 151 614 q 136 626 146 626 q 104 651 129 626 q 83 680 86 671 q 79 721 79 689 q 81 760 79 751 q 94 775 83 768 q 110 796 110 785 z "},"x":{"ha":579,"x_min":75,"x_max":501,"o":"m 449 639 q 447 649 447 643 q 465 667 447 667 q 486 663 474 667 q 501 632 501 658 q 472 576 501 608 q 400 529 429 529 q 383 517 389 529 q 374 501 382 514 q 363 479 367 488 q 351 447 351 457 q 386 432 351 432 q 413 429 408 432 q 415 415 417 426 q 400 397 414 399 q 388 389 388 394 q 406 344 388 381 q 440 301 428 301 q 454 307 447 301 q 475 317 471 317 q 482 310 481 317 q 481 294 483 303 q 474 281 479 285 q 465 267 465 272 q 454 249 465 260 q 426 239 446 239 q 369 256 400 239 q 329 296 339 272 q 306 333 313 326 q 282 336 294 349 q 272 321 272 328 q 292 292 272 311 q 314 250 314 269 q 303 238 314 238 q 267 228 292 238 q 243 221 249 221 q 224 235 238 221 q 163 263 196 263 q 115 243 138 263 q 96 208 96 225 q 107 186 96 196 q 119 167 119 175 q 104 158 118 158 q 75 213 75 158 l 75 250 l 110 283 q 145 313 136 308 q 182 317 154 317 q 226 321 219 317 q 248 355 231 322 q 265 393 265 388 q 233 397 265 394 q 206 401 211 399 q 200 415 201 404 q 201 429 199 426 q 214 432 204 432 q 232 440 229 432 l 233 442 q 233 446 233 444 q 226 474 233 457 q 213 494 219 490 q 194 522 201 501 q 158 551 182 551 q 146 550 150 551 q 143 550 144 550 l 140 549 q 132 558 132 549 q 147 582 132 572 q 165 596 151 585 q 190 614 179 607 q 213 624 201 621 q 215 624 214 624 q 218 625 217 625 q 292 544 251 625 q 325 496 318 496 q 338 506 329 496 q 349 526 349 519 q 331 544 349 536 q 315 563 315 553 q 331 581 315 572 q 360 604 342 586 q 407 625 381 625 q 428 618 418 625 q 439 613 433 613 q 450 629 450 613 q 449 634 450 631 q 449 639 449 638 z "},"y":{"ha":590,"x_min":81,"x_max":511,"o":"m 377 -68 q 368 -76 377 -68 q 356 -83 360 -83 q 327 -105 351 -83 q 300 -126 303 -126 q 278 -104 294 -126 q 261 -75 261 -82 q 235 -53 261 -65 q 189 -42 210 -42 q 156 -53 165 -42 q 136 -65 146 -65 q 113 -81 128 -65 q 82 -86 90 -106 l 81 -83 l 81 -81 q 121 -18 81 -62 q 215 32 164 32 q 256 25 232 32 q 290 11 282 17 q 304 -10 297 6 l 314 -31 l 332 -15 q 357 1 347 -1 q 392 31 361 3 q 419 76 419 57 l 419 92 q 404 151 419 129 q 389 189 389 174 q 378 220 389 201 q 361 242 368 239 q 329 219 354 244 q 301 200 307 200 q 275 221 294 200 q 207 263 261 236 q 154 301 154 288 q 165 319 154 308 q 175 343 174 326 q 176 431 176 360 l 176 529 l 153 553 q 113 578 128 578 q 94 588 94 578 q 119 628 94 600 q 165 661 151 661 q 192 642 176 661 q 218 619 211 619 q 240 597 236 619 q 243 469 243 574 l 243 335 l 258 329 q 274 319 265 326 q 296 311 282 311 q 347 288 317 311 q 368 286 358 278 q 378 371 378 296 q 374 482 378 417 q 365 542 371 533 q 325 558 358 551 q 306 574 306 563 q 333 618 306 589 q 383 651 364 651 q 401 642 394 651 q 415 632 411 632 q 444 619 419 632 q 485 608 467 608 q 499 600 499 608 q 469 564 499 585 l 443 546 l 443 410 q 453 264 443 274 q 463 242 463 251 q 474 217 463 225 q 486 199 486 207 q 499 181 486 190 q 511 122 511 168 q 499 65 511 78 q 486 47 486 56 q 474 30 486 43 q 463 11 463 17 q 435 -25 463 3 q 400 -53 407 -53 q 377 -68 394 -53 z "},"z":{"ha":543,"x_min":79,"x_max":465,"o":"m 432 281 q 433 281 432 281 q 435 283 435 281 q 432 286 435 286 q 429 283 429 286 q 432 281 429 281 m 333 292 q 363 271 336 292 q 392 250 389 250 q 401 260 399 250 q 397 281 403 271 q 394 292 394 285 q 428 311 394 311 q 465 288 465 311 q 449 253 465 274 q 383 183 392 183 q 365 171 375 183 q 338 158 354 158 q 301 178 317 158 q 219 254 281 204 q 197 243 218 256 q 151 229 176 229 q 125 244 125 229 q 138 263 125 256 q 150 276 150 269 q 179 329 150 286 q 203 374 203 364 q 172 383 203 383 q 153 386 156 383 q 151 400 150 389 q 159 415 153 411 q 199 419 165 418 q 250 436 243 422 q 267 461 258 453 q 274 479 276 472 q 260 486 272 486 q 204 532 250 486 q 146 574 161 574 q 114 551 133 574 q 88 536 97 532 q 79 547 79 539 q 102 587 79 558 q 125 621 125 615 q 133 626 125 626 q 154 639 139 626 q 188 660 172 654 q 229 668 208 668 q 258 653 258 668 q 284 606 258 640 q 319 571 310 571 q 350 583 325 571 q 386 596 372 596 q 401 589 397 596 q 403 583 403 588 q 393 562 403 574 q 371 544 383 550 q 349 518 353 538 q 297 442 346 503 q 292 431 292 436 q 335 418 292 419 q 365 415 360 417 q 371 401 371 413 q 363 388 371 390 q 315 383 356 385 q 297 383 307 383 q 282 382 286 382 q 272 382 278 382 q 265 381 267 382 q 260 378 263 379 q 255 374 257 378 q 251 369 253 371 q 245 361 249 367 q 239 351 242 356 q 224 321 224 328 q 267 311 224 311 q 319 301 311 311 q 333 292 329 292 z "}," ":{"ha":347,"x_min":0,"x_max":0,"o":""}}}
